# xmcd
#
# Track frame offsets:
#	150
#	19784
#	36941
#	54553
#	73041
#	91184
#	113020
#	128328
#	157114
#
# Disc length: 2459 seconds
#
# Revision: 0
# Processed by: cddbd v1.5PL3 Copyright (c) Steve Scherf et al.
# Submitted via: dBpowerAMP V4.0
#
DISCID=6d099909
DTITLE=Kenny Chesney - Live In Daytona
DYEAR=1900
DGENRE=
TTITLE0=Young
TTITLE1=Don't Happen Twice
TTITLE2=She's Got It All
TTITLE3=Back Where I Come From
TTITLE4=The Good Stuff
TTITLE5=I Lost It
TTITLE6=No Shoes, No Shirt, No Problem
TTITLE7=How Forever Feels
TTITLE8=She Thinks My Tractor's Sexy
EXTD=
EXTT0=
EXTT1=
EXTT2=
EXTT3=
EXTT4=
EXTT5=
EXTT6=
EXTT7=
EXTT8=
PLAYORDER=
